<?xml version="1.0" encoding="UTF-8"?>
<svg id="Ebene_1" data-name="Ebene 1" xmlns="http://www.w3.org/2000/svg" viewBox="0 0 1710 330">
  <defs>
    <style>
      .cls-1 {
        fill: #e5332a;
      }

      .cls-2 {
        fill: #f29100;
      }

      .cls-3 {
        fill: #2d2d2b;
      }
    </style>
  </defs>
  <g>
    <path class="cls-1" d="m150,300c-32.05,0-62.19-12.48-84.85-35.15-22.66-22.67-35.15-52.8-35.15-84.85s12.48-62.19,35.15-84.85c22.67-22.66,52.8-35.15,84.85-35.15v-30C67.16,30,0,97.16,0,180s67.16,150,150,150v-30Z"/>
    <path class="cls-1" d="m102.5,120c-12.43,0-22.5,10.07-22.5,22.5s10.07,22.5,22.5,22.5,22.5-10.07,22.5-22.5-10.07-22.5-22.5-22.5h0Z"/>
    <path class="cls-1" d="m150,240c-22.31,0-42.65-12.27-53.09-32.01-3.87-7.32-12.95-10.12-20.27-6.25s-10.12,12.95-6.25,20.27c15.65,29.6,46.15,47.99,79.61,47.99v-30Z"/>
  </g>
  <g>
    <path class="cls-2" d="m255,112.5c0-28.99-23.51-52.5-52.5-52.5s-52.5,23.51-52.5,52.5,23.51,52.5,52.5,52.5,52.5-23.51,52.5-52.5Zm-75,0c0-12.41,10.09-22.5,22.5-22.5s22.5,10.09,22.5,22.5-10.09,22.5-22.5,22.5-22.5-10.09-22.5-22.5Z"/>
    <path class="cls-2" d="m240,225c0-8.28-6.72-15-15-15h-75v30h75c8.28,0,15-6.72,15-15Z"/>
    <path class="cls-2" d="m357.5,90c-6.66,0-12.65,2.9-16.77,7.5h-40.73v-12.08c0-28.89-8.4-50.34-25.21-64.37C257.99,7.02,232.23,0,197.5,0h-47.5v30h47.5c26.96,0,47.04,4.87,58.07,14.08,3.57,2.98,14.43,12.04,14.43,41.34v129.58c0,29.22-10.77,38.11-14.33,41.05-11.04,9.13-31.16,13.95-58.18,13.95h-47.5v30h47.5c34.73,0,60.49-6.94,77.29-20.83,16.81-13.89,25.21-35.27,25.21-64.17v-87.5h40.73c4.12,4.6,10.1,7.5,16.77,7.5,12.43,0,22.5-10.07,22.5-22.5s-10.07-22.5-22.5-22.5Z"/>
  </g>
  <g>
    <path class="cls-3" d="m595.22,270.01h-81.33c-27.81,0-48.4-5.56-61.85-16.66-13.46-11.12-20.16-28.24-20.16-51.35v-103.66c0-23.11,6.7-40.29,20.16-51.52,13.46-11.2,34.05-16.82,61.85-16.82h81.33c4.2,0,7.27.95,9.17,2.82,1.87,1.9,2.82,4.94,2.82,9.17v40.34c0,4.23-.95,7.27-2.82,9.17-1.9,1.87-4.96,2.82-9.17,2.82h-67.01c-6.89,0-11.99,1.38-15.33,4.18-3.34,2.77-5.02,6.94-5.02,12.51v79.32c0,5.56,1.68,9.63,5.02,12.18s8.44,3.83,15.33,3.83h67.01c4.2,0,7.27.95,9.17,2.82,1.87,1.9,2.82,4.96,2.82,9.17v39.69c0,4.2-.95,7.27-2.82,9.17-1.9,1.87-4.96,2.82-9.17,2.82Z"/>
    <path class="cls-3" d="m846.6,207.02c0,10.2-1.52,19.48-4.5,27.83-3.01,8.33-8.36,15.44-16.01,21.32-7.68,5.89-18.23,10.5-31.69,13.84-13.43,3.34-30.49,4.99-51.16,4.99s-37.76-1.65-51.33-4.99c-13.56-3.34-24.17-7.95-31.85-13.84-7.65-5.89-12.99-12.99-15.98-21.32-3.01-8.36-4.5-17.63-4.5-27.83v-58.14c0-10.2,1.49-19.48,4.5-27.83,2.98-8.33,8.33-15.49,15.98-21.49,7.68-6,18.28-10.66,31.85-14,13.56-3.34,30.66-5.02,51.33-5.02s37.74,1.68,51.16,5.02c13.46,3.34,24.01,8,31.69,14,7.65,6,12.99,13.16,16.01,21.49,2.98,8.36,4.5,17.63,4.5,27.83v58.14Zm-131.36-12.02c0,4.45,1.68,8.17,4.99,11.18,3.34,2.98,11.01,4.5,23.01,4.5s19.67-1.52,23.01-4.5c3.34-3.01,4.99-6.73,4.99-11.18v-34.1c0-4.23-1.65-7.84-4.99-10.85-3.34-2.98-10.99-4.5-23.01-4.5s-19.67,1.52-23.01,4.5c-3.31,3.01-4.99,6.62-4.99,10.85v34.1Z"/>
    <path class="cls-3" d="m1028.93,270.01h-128.02c-4.2,0-7.27-.95-9.17-2.82-1.87-1.9-2.82-4.96-2.82-9.17V41.99c0-4.23.95-7.27,2.82-9.17,1.9-1.87,4.96-2.82,9.17-2.82h106.34c21.78,0,37.9,4.15,48.34,12.48,10.44,8.36,15.65,21.19,15.65,38.52v16.01c0,9.33-1.6,16.93-4.83,22.82s-8.17,10.28-14.84,13.18c14.24,1.33,24.8,6.21,31.69,14.65,6.89,8.46,10.34,20.78,10.34,37v30.68c0,18.66-5.29,32.45-15.84,41.32-10.55,8.9-26.83,13.35-48.83,13.35Zm-65-183.34v36h28.32c4.23,0,7.38-1.11,9.5-3.34s3.17-5.56,3.17-10.01v-9.33c0-4.45-1.06-7.79-3.17-10.01-2.12-2.2-5.26-3.31-9.5-3.31h-28.32Zm0,87.33v39.34h43.32c4.23,0,7.38-1.11,9.5-3.34,2.12-2.22,3.17-5.56,3.17-9.98v-13.02c0-4.42-1.06-7.7-3.17-9.82s-5.26-3.17-9.5-3.17h-43.32Z"/>
    <path class="cls-3" d="m1201.96,258.02c0,4.2-.95,7.27-2.85,9.17-1.9,1.87-4.94,2.82-9.17,2.82h-48.99c-4.23,0-7.3-.95-9.17-2.82s-2.85-4.96-2.85-9.17v-109.46c0-10.01,1.41-19.21,4.18-27.67,2.77-8.44,7.89-15.6,15.33-21.49,7.46-5.89,17.72-10.5,30.85-13.84,13.1-3.34,30-5.02,50.68-5.02s37.6,1.68,50.84,5.02c13.21,3.34,23.6,7.95,31.17,13.84,7.54,5.89,12.7,13.05,15.49,21.49,2.77,8.46,4.18,17.66,4.18,27.67v109.46c0,4.2-.95,7.27-2.85,9.17-1.9,1.87-4.94,2.82-9.17,2.82h-50.68c-4.2,0-7.27-.95-9.17-2.82-1.87-1.9-2.82-4.96-2.82-9.17v-16.83h-54.99v16.83Zm0-98.12v20.28h54.99v-20.28c0-4.45-1.65-8.17-4.99-11.18-3.34-2.98-10.8-4.5-22.35-4.5s-19.32,1.52-22.65,4.5c-3.34,3.01-4.99,6.73-4.99,11.18Z"/>
    <path class="cls-3" d="m1441.29,270.01h-52.98c-4.23,0-7.3-.95-9.17-2.82s-2.85-4.96-2.85-9.17V41.99c0-4.23.95-7.27,2.85-9.17s4.94-2.82,9.17-2.82h52.98c4.23,0,7.3.95,9.17,2.82s2.85,4.94,2.85,9.17v216.03c0,4.2-.95,7.27-2.85,9.17s-4.94,2.82-9.17,2.82Z"/>
    <path class="cls-3" d="m1562.99,270.01h-51.35c-4.2,0-7.27-.95-9.17-2.82-1.87-1.9-2.82-4.96-2.82-9.17V41.99c0-4.23.95-7.27,2.82-9.17,1.9-1.87,4.96-2.82,9.17-2.82h111.01c24.9,0,42.05,5.15,51.52,15.49,9.44,10.34,14.16,23.74,14.16,40.18v15.33c0,9.33-1.38,17.28-4.18,23.85-2.77,6.54-7.6,11.26-14.49,14.16,11.99,1.33,21.7,6.21,29.16,14.65,7.43,8.46,11.18,19.67,11.18,33.69v70.67c0,4.2-.95,7.27-2.85,9.17-1.9,1.87-4.94,2.82-9.17,2.82h-51.65c-4.23,0-7.3-.95-9.17-2.82s-2.85-4.96-2.85-9.17v-51c0-4.91-.95-8.52-2.82-10.85-1.9-2.33-5.18-3.5-9.85-3.5h-46.66v65.35c0,4.2-.95,7.27-2.82,9.17-1.9,1.87-4.96,2.82-9.17,2.82Zm11.99-180.03v42.67h25.01c5.75,0,9.66-1.49,11.67-4.5,1.98-2.98,2.98-6.7,2.98-11.15v-11.34c0-4.45-1-8.17-2.98-11.18-2.01-2.98-5.91-4.5-11.67-4.5h-25.01Z"/>
  </g>
</svg>